<svg width="203" height="203" viewBox="0 0 203 203" fill="none" xmlns="http://www.w3.org/2000/svg">
<g opacity="0.23" clip-path="url(#clip0_531_785)">
<path d="M77.501 29.0724V46.631" stroke="#263238" stroke-width="6.17882" stroke-linecap="round" stroke-linejoin="round"/>
<path d="M59.9424 29.0724V46.631" stroke="#263238" stroke-width="6.17882" stroke-linecap="round" stroke-linejoin="round"/>
<path d="M68.7217 33.4621V51.0207" stroke="#263238" stroke-width="6.17882" stroke-linecap="round" stroke-linejoin="round"/>
<path d="M86.28 36.93C88.5873 35.9194 90.4767 34.146 91.6312 31.9072C92.7856 29.6684 93.1347 27.1007 92.6199 24.635C92.1052 22.1693 90.7579 19.9557 88.8041 18.3658C86.8504 16.7759 84.4092 15.9065 81.8903 15.9036H79.1249C78.4291 13.2095 77.1031 10.7193 75.2561 8.63826C73.409 6.55725 71.0939 4.94498 68.5014 3.93437C65.909 2.92375 63.1134 2.54372 60.3453 2.82559C57.5771 3.10747 54.9156 4.04318 52.58 5.5556C50.2445 7.06802 48.3018 9.11385 46.9121 11.5244C45.5225 13.9351 44.7256 16.6414 44.5872 19.4204C44.4488 22.1995 44.9728 24.9716 46.1161 27.5084C47.2593 30.0451 48.9891 32.2739 51.1628 34.0109" fill="#F5F7FA"/>
<path d="M86.28 36.93C88.5873 35.9194 90.4767 34.146 91.6312 31.9072C92.7856 29.6684 93.1347 27.1007 92.6199 24.635C92.1052 22.1693 90.7579 19.9557 88.8041 18.3658C86.8504 16.7759 84.4092 15.9065 81.8903 15.9036H79.1249C78.4291 13.2095 77.1031 10.7193 75.2561 8.63826C73.409 6.55725 71.0939 4.94498 68.5014 3.93437C65.909 2.92375 63.1134 2.54372 60.3453 2.82559C57.5771 3.10747 54.9156 4.04318 52.58 5.5556C50.2445 7.06802 48.3018 9.11385 46.9121 11.5244C45.5225 13.9351 44.7256 16.6414 44.5872 19.4204C44.4488 22.1995 44.9728 24.9716 46.1161 27.5084C47.2593 30.0451 48.9891 32.2739 51.1628 34.0109" stroke="#263238" stroke-width="6.17882" stroke-linecap="round" stroke-linejoin="round"/>
</g>
<mask id="path-6-inside-1_531_785" fill="white">
<path fill-rule="evenodd" clip-rule="evenodd" d="M55.1906 82.595C62.5423 68.0354 77.6349 58.0512 95.0593 58.0512C114.955 58.0512 131.811 71.0684 137.574 89.0507C139.846 88.6942 142.175 88.5091 144.548 88.5091C169.199 88.5091 189.183 108.493 189.183 133.145C189.183 157.796 169.199 177.78 144.548 177.78C144.061 177.78 143.576 177.772 143.094 177.757C134.212 192.411 118.113 202.204 99.7257 202.204C83.6817 202.204 69.3792 194.748 60.0942 183.112C57.3354 183.577 54.5009 183.819 51.6098 183.819C23.6232 183.819 0.935547 161.131 0.935547 133.145C0.935547 105.158 23.6232 82.4704 51.6098 82.4704C52.8137 82.4704 54.0077 82.5124 55.1906 82.595Z"/>
</mask>
<path d="M55.1906 82.595L54.8424 87.5829L58.1565 87.8142L59.6539 84.8487L55.1906 82.595ZM137.574 89.0507L132.812 90.5767L134.119 94.654L138.349 93.9903L137.574 89.0507ZM143.094 177.757L143.254 172.76L140.332 172.666L138.818 175.166L143.094 177.757ZM60.0942 183.112L64.0025 179.993L62.1662 177.692L59.2631 178.181L60.0942 183.112ZM59.6539 84.8487C66.1883 71.9078 79.594 63.0512 95.0593 63.0512V53.0512C75.6758 53.0512 58.8964 64.1631 50.7273 80.3413L59.6539 84.8487ZM95.0593 63.0512C112.719 63.0512 127.693 74.6038 132.812 90.5767L142.335 87.5248C135.928 67.533 117.191 53.0512 95.0593 53.0512V63.0512ZM144.548 83.5091C141.915 83.5091 139.326 83.7146 136.799 84.1112L138.349 93.9903C140.366 93.6739 142.436 93.5091 144.548 93.5091V83.5091ZM194.183 133.145C194.183 105.732 171.961 83.5091 144.548 83.5091V93.5091C166.438 93.5091 184.183 111.255 184.183 133.145H194.183ZM144.548 182.78C171.961 182.78 194.183 160.558 194.183 133.145H184.183C184.183 155.035 166.438 172.78 144.548 172.78V182.78ZM142.934 182.754C143.47 182.772 144.008 182.78 144.548 182.78V172.78C144.114 172.78 143.683 172.773 143.254 172.76L142.934 182.754ZM99.7257 207.204C119.933 207.204 137.62 196.436 147.37 180.349L138.818 175.166C130.805 188.387 116.293 197.204 99.7257 197.204V207.204ZM56.1859 186.23C66.3789 199.004 82.0963 207.204 99.7257 207.204V197.204C85.2671 197.204 72.3795 190.492 64.0025 179.993L56.1859 186.23ZM51.6098 188.819C54.7805 188.819 57.893 188.553 60.9253 188.042L59.2631 178.181C56.7778 178.6 54.2212 178.819 51.6098 178.819V188.819ZM-4.06445 133.145C-4.06445 163.893 20.8618 188.819 51.6098 188.819V178.819C26.3846 178.819 5.93555 158.37 5.93555 133.145H-4.06445ZM51.6098 77.4704C20.8618 77.4704 -4.06445 102.397 -4.06445 133.145H5.93555C5.93555 107.919 26.3846 87.4704 51.6098 87.4704V77.4704ZM55.5388 77.6071C54.2401 77.5165 52.9299 77.4704 51.6098 77.4704V87.4704C52.6974 87.4704 53.7753 87.5084 54.8424 87.5829L55.5388 77.6071Z" fill="#EE0979" mask="url(#path-6-inside-1_531_785)"/>
<mask id="path-8-inside-2_531_785" fill="white">
<path fill-rule="evenodd" clip-rule="evenodd" d="M138.668 16.9702C142.161 10.051 149.334 5.30618 157.615 5.30618C167.07 5.30618 175.08 11.4923 177.819 20.038C178.898 19.8686 180.005 19.7807 181.132 19.7807C192.848 19.7807 202.345 29.2777 202.345 40.9929C202.345 52.708 192.848 62.2051 181.132 62.2051C180.901 62.2051 180.671 62.2014 180.442 62.194C176.221 69.1583 168.57 73.8121 159.832 73.8121C152.208 73.8121 145.411 70.2687 140.998 64.7388C139.687 64.9598 138.34 65.0749 136.966 65.0749C123.666 65.0749 112.884 54.293 112.884 40.9929C112.884 27.6928 123.666 16.911 136.966 16.911C137.538 16.911 138.105 16.9309 138.668 16.9702Z"/>
</mask>
<path d="M138.668 16.9702L138.319 21.958L141.634 22.1894L143.131 19.2239L138.668 16.9702ZM177.819 20.038L173.057 21.564L174.364 25.6412L178.593 24.9776L177.819 20.038ZM180.442 62.194L180.602 57.1966L177.681 57.1032L176.166 59.6025L180.442 62.194ZM140.998 64.7388L144.906 61.6202L143.07 59.3189L140.167 59.8083L140.998 64.7388ZM143.131 19.2239C145.807 13.9234 151.293 10.3062 157.615 10.3062V0.306183C147.375 0.306183 138.515 6.17865 134.204 14.7165L143.131 19.2239ZM157.615 10.3062C164.833 10.3062 170.962 15.0277 173.057 21.564L182.58 18.5121C179.197 7.95693 169.306 0.306183 157.615 0.306183V10.3062ZM181.132 14.7807C179.745 14.7807 178.379 14.889 177.044 15.0985L178.593 24.9776C179.418 24.8483 180.266 24.7807 181.132 24.7807V14.7807ZM207.345 40.9929C207.345 26.5163 195.609 14.7807 181.132 14.7807V24.7807C190.086 24.7807 197.345 32.0392 197.345 40.9929H207.345ZM181.132 67.2051C195.609 67.2051 207.345 55.4695 207.345 40.9929H197.345C197.345 49.9466 190.086 57.2051 181.132 57.2051V67.2051ZM180.282 67.1915C180.565 67.2005 180.848 67.2051 181.132 67.2051V57.2051C180.955 57.2051 180.778 57.2022 180.602 57.1966L180.282 67.1915ZM159.832 78.8121C170.39 78.8121 179.629 73.1826 184.718 64.7855L176.166 59.6025C172.814 65.1339 166.75 68.8121 159.832 68.8121V78.8121ZM137.09 67.8573C142.41 74.5251 150.622 78.8121 159.832 78.8121V68.8121C153.793 68.8121 148.411 66.0123 144.906 61.6202L137.09 67.8573ZM136.966 70.0749C138.619 70.0749 140.245 69.9363 141.829 69.6692L140.167 59.8083C139.129 59.9832 138.06 60.0749 136.966 60.0749V70.0749ZM107.884 40.9929C107.884 57.0544 120.904 70.0749 136.966 70.0749V60.0749C126.427 60.0749 117.884 51.5316 117.884 40.9929H107.884ZM136.966 11.911C120.904 11.911 107.884 24.9314 107.884 40.9929H117.884C117.884 30.4542 126.427 21.911 136.966 21.911V11.911ZM139.016 11.9823C138.338 11.935 137.654 11.911 136.966 11.911V21.911C137.422 21.911 137.873 21.9269 138.319 21.958L139.016 11.9823Z" fill="#EE0979" mask="url(#path-8-inside-2_531_785)"/>
<defs>
<clipPath id="clip0_531_785">
<rect width="52.6757" height="52.6757" fill="white" transform="translate(42.3838 0.539764)"/>
</clipPath>
</defs>
</svg>
