<svg width="178" height="153" viewBox="0 0 178 153" fill="none" xmlns="http://www.w3.org/2000/svg">
<path d="M68.0807 15.2798V15.2767C68.0814 12.6372 68.9298 10.0678 70.5011 7.94695C72.0723 5.82612 74.2833 4.26605 76.8081 3.49662C79.3329 2.72719 82.0381 2.78909 84.5251 3.67319C87.0121 4.55729 89.1494 6.21684 90.622 8.4073C92.0946 10.5978 92.8247 13.2033 92.7047 15.8401C92.5847 18.4768 91.6209 21.0053 89.9554 23.0529C88.2899 25.1005 86.0107 26.5591 83.4537 27.2136C80.8967 27.8681 78.197 27.684 75.7525 26.6884L73.8618 25.9184L72.7294 27.617L65.1305 39.0153L63.9996 40.7117L65.4339 42.1607C66.635 43.3743 67.5708 44.8242 68.1817 46.4186C68.7927 48.013 69.0655 49.717 68.9829 51.4225C68.9003 53.1279 68.464 54.7975 67.7018 56.3254C66.9396 57.8533 65.8681 59.206 64.5553 60.2978C63.2424 61.3895 61.717 62.1964 60.0757 62.6672C58.4345 63.138 56.7133 63.2625 55.0214 63.0328C53.3295 62.803 51.7038 62.224 50.2475 61.3326C48.7913 60.4411 47.5362 59.2566 46.5621 57.8543L45.3985 56.1793L43.5239 56.9829L28.7292 63.3252L26.853 64.1295L27.2659 66.1286C27.8834 69.1182 27.3688 72.2306 25.822 74.8624C24.2751 77.4941 21.8061 79.4578 18.8937 80.3726C15.9813 81.2874 12.833 81.0883 10.0591 79.8137C7.28516 78.5392 5.08332 76.28 3.88043 73.4743C2.67754 70.6686 2.5593 67.5162 3.54863 64.6282C4.53795 61.7403 6.56437 59.3226 9.23499 57.8438C11.9056 56.365 15.0302 55.9306 18.003 56.6246C20.9757 57.3187 23.5849 59.0919 25.3245 61.6004L26.4878 63.2777L28.3639 62.4735L43.1585 56.1312L45.0358 55.3264L44.6216 53.3264C44.1686 51.1396 44.3187 48.8708 45.0556 46.7627C45.7926 44.6546 47.0888 42.7865 48.8056 41.3582C50.5223 39.93 52.5951 38.9953 54.802 38.6541C57.009 38.3129 59.2673 38.5782 61.3352 39.4214L63.2259 40.1924L64.3589 38.4937L71.9578 27.1013L73.0921 25.4007L71.6507 23.9512C69.3596 21.6474 68.0757 18.5289 68.0807 15.2798Z" stroke="#89939E" stroke-width="5"/>
<path d="M103.481 115.587V92.5756M121.89 115.587V78.7687M140.299 115.587V106.382M149.504 60.3594H94.2759C91.8347 60.3594 89.4935 61.3292 87.7673 63.0554C86.0411 64.7816 85.0713 67.1228 85.0713 69.5641V124.792C85.0713 127.233 86.0411 129.574 87.7673 131.3C89.4935 133.027 91.8347 133.996 94.2759 133.996H149.504C151.945 133.996 154.286 133.027 156.012 131.3C157.738 129.574 158.708 127.233 158.708 124.792V69.5641C158.708 67.1228 157.738 64.7816 156.012 63.0554C154.286 61.3292 151.945 60.3594 149.504 60.3594Z" stroke="#EE0979" stroke-width="5" stroke-linecap="round" stroke-linejoin="round"/>
</svg>
