<svg width="183" height="183" viewBox="0 0 183 183" fill="none" xmlns="http://www.w3.org/2000/svg">
<g id="carbon:application">
<path id="Vector" d="M91.3338 100.527H34.5591C32.2106 100.527 29.9583 99.5941 28.2977 97.9335C26.637 96.2729 25.7041 94.0206 25.7041 91.6721V34.8973C25.7041 32.5488 26.637 30.2965 28.2977 28.6359C29.9583 26.9753 32.2106 26.0424 34.5591 26.0424H91.3338C93.6823 26.0424 95.9346 26.9753 97.5952 28.6359C99.2559 30.2965 100.189 32.5488 100.189 34.8973V91.6721C100.189 94.0206 99.2559 96.2729 97.5952 97.9335C95.9346 99.5941 93.6823 100.527 91.3338 100.527ZM125.399 60.1072H148.109C150.457 60.1072 152.709 61.0402 154.37 62.7008C156.031 64.3614 156.964 66.6137 156.964 68.9622V91.6721C156.964 94.0206 156.031 96.2729 154.37 97.9335C152.709 99.5941 150.457 100.527 148.109 100.527H125.399C123.05 100.527 120.798 99.5941 119.137 97.9335C117.477 96.2729 116.544 94.0206 116.544 91.6721V68.9622C116.544 66.6137 117.477 64.3614 119.137 62.7008C120.798 61.0402 123.05 60.1072 125.399 60.1072ZM125.399 116.882H148.109C150.457 116.882 152.709 117.815 154.37 119.476C156.031 121.136 156.964 123.388 156.964 125.737V148.447C156.964 150.795 156.031 153.048 154.37 154.708C152.709 156.369 150.457 157.302 148.109 157.302H125.399C123.05 157.302 120.798 156.369 119.137 154.708C117.477 153.048 116.544 150.795 116.544 148.447V125.737C116.544 123.388 117.477 121.136 119.137 119.476C120.798 117.815 123.05 116.882 125.399 116.882ZM68.6239 116.882H91.3338C93.6823 116.882 95.9346 117.815 97.5952 119.476C99.2559 121.136 100.189 123.388 100.189 125.737V148.447C100.189 150.795 99.2559 153.048 97.5952 154.708C95.9346 156.369 93.6823 157.302 91.3338 157.302H68.6239C66.2755 157.302 64.0232 156.369 62.3625 154.708C60.7019 153.048 59.769 150.795 59.769 148.447V125.737C59.769 123.388 60.7019 121.136 62.3625 119.476C64.0232 117.815 66.2755 116.882 68.6239 116.882Z" stroke="#EE0979" stroke-width="5"/>
</g>
</svg>
