<svg width="155" height="32" viewBox="0 0 155 32" fill="none" xmlns="http://www.w3.org/2000/svg">
<g id="reldyn-logo 1" clip-path="url(#clip0_467_692)">
<path id="Vector" d="M10.6345 20.2902H6.49146V30.8086H0V0H12.0866C14.0516 0 15.8307 0.43282 17.4252 1.29846C19.0198 2.16411 20.2655 3.37447 21.1619 4.92955C22.0589 6.48463 22.5074 8.24458 22.5074 10.2108C22.5074 12.177 22.0236 13.9517 21.0553 15.5361C20.0871 17.1213 18.7633 18.3239 17.0833 19.1448L23.703 30.8086H16.4427L10.6345 20.2902ZM6.49146 14.1279H11.6591C12.9687 14.1279 14.0156 13.7608 14.798 13.0273C15.581 12.2938 15.9725 11.3401 15.9725 10.1668C15.9725 9.37454 15.8015 8.67741 15.4595 8.07607C15.1182 7.47474 14.6195 7.00486 13.9647 6.66713C13.31 6.3301 12.5412 6.16089 11.6584 6.16089H6.49078L6.49146 14.1279Z" fill="#EE0979"/>
<path id="Vector_2" d="M46.063 24.603V30.8086H27.6553V0H45.5935V6.16159H34.1467V12.2358H44.482V18.2659H34.1461V24.603H46.063Z" fill="#EE0979"/>
<path id="Vector_3" d="M69.2331 24.603V30.8086H51.2949V0H57.7864V24.603H69.2331Z" fill="#EE0979"/>
<path id="Vector_4" d="M94.6678 4.33521C97.5291 7.22581 98.9601 10.9002 98.9601 15.3606C98.9601 19.821 97.5291 23.5101 94.6678 26.4301C91.8058 29.3493 88.1831 30.8093 83.7978 30.8093H72.48V0H83.7978C88.1831 0 91.8058 1.4453 94.6678 4.33521ZM89.9052 22.0068C91.5282 20.2755 92.3398 18.0603 92.3398 15.3606C92.3398 12.6616 91.5282 10.4604 89.9052 8.75922C88.2822 7.058 86.1896 6.20634 83.6268 6.20634H78.9714V24.6037H83.6268C86.1896 24.603 88.2829 23.7374 89.9052 22.0068Z" fill="#EE0979"/>
<path id="Vector_5" d="M115.403 18.3533V30.8086H108.74V18.3093L98.3203 0H105.196L112.115 12.3239L119.034 0H125.91L115.403 18.3533Z" fill="#EE0979"/>
<path id="Vector_6" d="M154.342 0V30.8086H148.961L135.422 11.5757V30.8093H129.058V0H134.909L148.02 18.7931V0H154.342Z" fill="#EE0979"/>
</g>
<defs>
<clipPath id="clip0_467_692">
<rect width="154.704" height="31.4652" fill="white"/>
</clipPath>
</defs>
</svg>
