<svg width="248" height="183" viewBox="0 0 248 183" fill="none" xmlns="http://www.w3.org/2000/svg">
<g id="Group 2238">
<path id="Vector" d="M35.0033 120.717H98.5569M3.22656 11.7685V84.4011C3.22656 86.809 4.18311 89.1183 5.88576 90.821C7.58842 92.5236 9.89772 93.4802 12.3056 93.4802H121.255C123.662 93.4802 125.972 92.5236 127.674 90.821C129.377 89.1183 130.334 86.809 130.334 84.4011V11.7685C130.334 9.36058 129.377 7.05128 127.674 5.34862C125.972 3.64596 123.662 2.68942 121.255 2.68942H12.3056C9.89772 2.68942 7.58842 3.64596 5.88576 5.34862C4.18311 7.05128 3.22656 9.36058 3.22656 11.7685Z" stroke="#EE0979" stroke-width="5"/>
<path id="Vector_2" d="M166.321 165.462H229.875" stroke="#ABBED1" stroke-width="5"/>
<g id="Group 2233">
<path id="Vector_3" d="M169.147 150.037H227.05" stroke="#ABBED1" stroke-width="5"/>
<g id="Group 2232">
<path id="Vector_4" d="M169.147 83.605H227.05" stroke="#ABBED1" stroke-width="5"/>
<path id="Vector_5" d="M169.147 100.213H227.05" stroke="#ABBED1" stroke-width="5"/>
<path id="Vector_6" d="M169.147 116.821H227.05" stroke="#ABBED1" stroke-width="5"/>
<path id="Vector_7" d="M169.147 133.429H227.05" stroke="#ABBED1" stroke-width="5"/>
<rect id="Rectangle 19" x="150.99" y="61.6002" width="94.2168" height="118.235" rx="15" stroke="#EE0979" stroke-width="5"/>
</g>
</g>
</g>
</svg>
